# xmcd
#
# Track frame offsets:
#	150
#	18714
#	39341
#	64841
#	94993
#	123345
#	142959
#	163848
#	195950
#	217852
#	243165
#	269942
#	289969
#	312995
#	341309
#
# Disc length: 4739 seconds
#
# Revision: 2
# Processed by: cddbd v1.5.2PL0 Copyright (c) Steve Scherf et al.
# Submitted via: audiograbber 1.83.01
#
DISCID=de12810f
DTITLE=—борник - Blues Paradise vol.29
DYEAR=2002
DGENRE=Blues
TTITLE0=The Jeff Healey Band - I Tread
TTITLE1=Alex Parche - Low Down Woman
TTITLE2=Hedford Slim Band - Treat Her Right
TTITLE3=Sean Costello - Blues Papa Mi Angelita
TTITLE4=Melvin Taylor - A Qitter Never Wins
TTITLE5=James Solberg - Members Only
TTITLE6=Lance Keltner - Tomorrow Will Come
TTITLE7=Peter Garstenauer - Midnight Flow
TTITLE8=Robin Trower - Blue For Soul
TTITLE9=Calvin Russell - One Meat Ball
TTITLE10=George Ross Watt and The Business - The Storm
TTITLE11=Tineke Schoemaker and Cuby Blizzards - Somebody Will Know Somebody
TTITLE12=Greg Serrato - Warrior Of Peace
TTITLE13=Tommy Shrieve Band - Summertime
TTITLE14=Muskee - Sleepin' Dog
EXTD=
EXTT0=
EXTT1=
EXTT2=
EXTT3=
EXTT4=
EXTT5=
EXTT6=
EXTT7=
EXTT8=
EXTT9=
EXTT10=
EXTT11=
EXTT12=
EXTT13=
EXTT14=
PLAYORDER=
